<svg width="270" height="175" viewBox="0 0 270 175" fill="none" xmlns="http://www.w3.org/2000/svg">
<g clip-path="url(#clip0_36113_822)">
<rect width="50" height="50" rx="15" fill="#FAB005"/>
<path d="M25.4821 23.6429V22.5893C25.4821 22.3393 25.3929 22.125 25.2143 21.9464C25.0357 21.7679 24.8214 21.6786 24.5714 21.6786C24.3214 21.6786 24.1071 21.7679 23.9286 21.9464C23.75 22.125 23.6607 22.3393 23.6607 22.5893V28.0536C23.6607 29.0952 23.2857 29.9851 22.5357 30.7232C21.7857 31.4613 20.8839 31.8304 19.8304 31.8304C18.7708 31.8304 17.8661 31.4583 17.1161 30.7143C16.372 29.9643 16 29.0595 16 28V25.625H18.9286V27.9643C18.9286 28.2202 19.0179 28.4375 19.1964 28.6161C19.375 28.7887 19.5893 28.875 19.8393 28.875C20.0893 28.875 20.3036 28.7887 20.4821 28.6161C20.6607 28.4375 20.75 28.2202 20.75 27.9643V22.4286C20.75 21.4107 21.125 20.5417 21.875 19.8214C22.631 19.1012 23.5298 18.7411 24.5714 18.7411C25.619 18.7411 26.5179 19.1042 27.2679 19.8304C28.0179 20.5565 28.3929 21.4315 28.3929 22.4554V23.6696L26.6518 24.1875L25.4821 23.6429ZM30.2143 25.625H33.1429V28C33.1429 29.0595 32.7679 29.9643 32.0179 30.7143C31.2738 31.4583 30.372 31.8304 29.3125 31.8304C28.2589 31.8304 27.3571 31.4613 26.6071 30.7232C25.8571 29.9792 25.4821 29.0833 25.4821 28.0357V25.6429L26.6518 26.1875L28.3929 25.6696V28.0804C28.3929 28.3304 28.4821 28.5446 28.6607 28.7232C28.8393 28.8958 29.0536 28.9821 29.3036 28.9821C29.5536 28.9821 29.7679 28.8958 29.9464 28.7232C30.125 28.5446 30.2143 28.3304 30.2143 28.0804V25.625Z" fill="white"/>
</g>
<path d="M4.944 142.128C4.09067 142.128 3.27467 142 2.496 141.744C1.71733 141.477 1.104 141.136 0.656 140.72L1.248 139.472C1.67467 139.845 2.21867 140.155 2.88 140.4C3.54133 140.645 4.22933 140.768 4.944 140.768C5.59467 140.768 6.12267 140.693 6.528 140.544C6.93333 140.395 7.232 140.192 7.424 139.936C7.616 139.669 7.712 139.371 7.712 139.04C7.712 138.656 7.584 138.347 7.328 138.112C7.08267 137.877 6.75733 137.691 6.352 137.552C5.95733 137.403 5.52 137.275 5.04 137.168C4.56 137.061 4.07467 136.939 3.584 136.8C3.104 136.651 2.66133 136.464 2.256 136.24C1.86133 136.016 1.54133 135.717 1.296 135.344C1.05067 134.96 0.928 134.469 0.928 133.872C0.928 133.296 1.07733 132.768 1.376 132.288C1.68533 131.797 2.15467 131.408 2.784 131.12C3.424 130.821 4.23467 130.672 5.216 130.672C5.86667 130.672 6.512 130.757 7.152 130.928C7.792 131.099 8.34667 131.344 8.816 131.664L8.288 132.944C7.808 132.624 7.30133 132.395 6.768 132.256C6.23467 132.107 5.71733 132.032 5.216 132.032C4.58667 132.032 4.06933 132.112 3.664 132.272C3.25867 132.432 2.96 132.645 2.768 132.912C2.58667 133.179 2.496 133.477 2.496 133.808C2.496 134.203 2.61867 134.517 2.864 134.752C3.12 134.987 3.44533 135.173 3.84 135.312C4.24533 135.451 4.688 135.579 5.168 135.696C5.648 135.803 6.128 135.925 6.608 136.064C7.09867 136.203 7.54133 136.384 7.936 136.608C8.34133 136.832 8.66667 137.131 8.912 137.504C9.15733 137.877 9.28 138.357 9.28 138.944C9.28 139.509 9.12533 140.037 8.816 140.528C8.50667 141.008 8.02667 141.397 7.376 141.696C6.736 141.984 5.92533 142.128 4.944 142.128ZM15.8895 142.096C15.1855 142.096 14.5402 141.936 13.9535 141.616C13.3775 141.285 12.9135 140.8 12.5615 140.16C12.2202 139.52 12.0495 138.72 12.0495 137.76C12.0495 136.8 12.2148 136 12.5455 135.36C12.8868 134.72 13.3455 134.24 13.9215 133.92C14.5082 133.6 15.1642 133.44 15.8895 133.44C16.7215 133.44 17.4575 133.621 18.0975 133.984C18.7375 134.347 19.2442 134.853 19.6175 135.504C19.9908 136.144 20.1775 136.896 20.1775 137.76C20.1775 138.624 19.9908 139.381 19.6175 140.032C19.2442 140.683 18.7375 141.189 18.0975 141.552C17.4575 141.915 16.7215 142.096 15.8895 142.096ZM11.3935 145.104V133.52H12.8655V135.808L12.7695 137.776L12.9295 139.744V145.104H11.3935ZM15.7615 140.752C16.3055 140.752 16.7908 140.629 17.2175 140.384C17.6548 140.139 17.9962 139.792 18.2415 139.344C18.4975 138.885 18.6255 138.357 18.6255 137.76C18.6255 137.152 18.4975 136.629 18.2415 136.192C17.9962 135.744 17.6548 135.397 17.2175 135.152C16.7908 134.907 16.3055 134.784 15.7615 134.784C15.2282 134.784 14.7428 134.907 14.3055 135.152C13.8788 135.397 13.5375 135.744 13.2815 136.192C13.0362 136.629 12.9135 137.152 12.9135 137.76C12.9135 138.357 13.0362 138.885 13.2815 139.344C13.5375 139.792 13.8788 140.139 14.3055 140.384C14.7428 140.629 15.2282 140.752 15.7615 140.752ZM25.9318 142.096C25.0784 142.096 24.3211 141.909 23.6598 141.536C22.9984 141.163 22.4758 140.651 22.0918 140C21.7078 139.339 21.5158 138.592 21.5158 137.76C21.5158 136.917 21.7078 136.171 22.0918 135.52C22.4758 134.869 22.9984 134.363 23.6598 134C24.3211 133.627 25.0784 133.44 25.9318 133.44C26.7744 133.44 27.5264 133.627 28.1878 134C28.8598 134.363 29.3824 134.869 29.7558 135.52C30.1398 136.16 30.3318 136.907 30.3318 137.76C30.3318 138.603 30.1398 139.349 29.7558 140C29.3824 140.651 28.8598 141.163 28.1878 141.536C27.5264 141.909 26.7744 142.096 25.9318 142.096ZM25.9318 140.752C26.4758 140.752 26.9611 140.629 27.3878 140.384C27.8251 140.139 28.1664 139.792 28.4118 139.344C28.6571 138.885 28.7798 138.357 28.7798 137.76C28.7798 137.152 28.6571 136.629 28.4118 136.192C28.1664 135.744 27.8251 135.397 27.3878 135.152C26.9611 134.907 26.4758 134.784 25.9318 134.784C25.3878 134.784 24.9024 134.907 24.4758 135.152C24.0491 135.397 23.7078 135.744 23.4518 136.192C23.1958 136.629 23.0678 137.152 23.0678 137.76C23.0678 138.357 23.1958 138.885 23.4518 139.344C23.7078 139.792 24.0491 140.139 24.4758 140.384C24.9024 140.629 25.3878 140.752 25.9318 140.752ZM32.456 142V133.52H33.928V135.824L33.784 135.248C34.0187 134.661 34.4133 134.213 34.968 133.904C35.5227 133.595 36.2053 133.44 37.016 133.44V134.928C36.952 134.917 36.888 134.912 36.824 134.912C36.7707 134.912 36.7173 134.912 36.664 134.912C35.8427 134.912 35.192 135.157 34.712 135.648C34.232 136.139 33.992 136.848 33.992 137.776V142H32.456ZM42.1649 142.096C41.3115 142.096 40.6502 141.867 40.1809 141.408C39.7115 140.949 39.4769 140.293 39.4769 139.44V131.664H41.0129V139.376C41.0129 139.835 41.1249 140.187 41.3489 140.432C41.5835 140.677 41.9142 140.8 42.3409 140.8C42.8209 140.8 43.2209 140.667 43.5409 140.4L44.0209 141.504C43.7862 141.707 43.5035 141.856 43.1729 141.952C42.8529 142.048 42.5169 142.096 42.1649 142.096ZM38.0369 134.784V133.52H43.4449V134.784H38.0369ZM48.3099 142.096C47.6059 142.096 46.9339 142 46.2939 141.808C45.6645 141.616 45.1685 141.381 44.8059 141.104L45.4459 139.888C45.8085 140.133 46.2565 140.341 46.7899 140.512C47.3232 140.683 47.8672 140.768 48.4219 140.768C49.1365 140.768 49.6485 140.667 49.9579 140.464C50.2779 140.261 50.4379 139.979 50.4379 139.616C50.4379 139.349 50.3419 139.141 50.1499 138.992C49.9579 138.843 49.7019 138.731 49.3819 138.656C49.0725 138.581 48.7259 138.517 48.3419 138.464C47.9579 138.4 47.5739 138.325 47.1899 138.24C46.8059 138.144 46.4539 138.016 46.1339 137.856C45.8139 137.685 45.5579 137.456 45.3659 137.168C45.1739 136.869 45.0779 136.475 45.0779 135.984C45.0779 135.472 45.2219 135.024 45.5099 134.64C45.7979 134.256 46.2032 133.963 46.7259 133.76C47.2592 133.547 47.8885 133.44 48.6139 133.44C49.1685 133.44 49.7285 133.509 50.2939 133.648C50.8699 133.776 51.3392 133.963 51.7019 134.208L51.0459 135.424C50.6619 135.168 50.2619 134.992 49.8459 134.896C49.4299 134.8 49.0139 134.752 48.5979 134.752C47.9259 134.752 47.4245 134.864 47.0939 135.088C46.7632 135.301 46.5979 135.579 46.5979 135.92C46.5979 136.208 46.6939 136.432 46.8859 136.592C47.0885 136.741 47.3445 136.859 47.6539 136.944C47.9739 137.029 48.3259 137.104 48.7099 137.168C49.0939 137.221 49.4779 137.296 49.8619 137.392C50.2459 137.477 50.5925 137.6 50.9019 137.76C51.2219 137.92 51.4779 138.144 51.6699 138.432C51.8725 138.72 51.9739 139.104 51.9739 139.584C51.9739 140.096 51.8245 140.539 51.5259 140.912C51.2272 141.285 50.8059 141.579 50.2619 141.792C49.7179 141.995 49.0672 142.096 48.3099 142.096ZM62.6864 142.096C61.961 142.096 61.305 141.936 60.7184 141.616C60.1424 141.285 59.6837 140.8 59.3424 140.16C59.0117 139.52 58.8464 138.72 58.8464 137.76C58.8464 136.8 59.017 136 59.3584 135.36C59.7104 134.72 60.1744 134.24 60.7504 133.92C61.337 133.6 61.9824 133.44 62.6864 133.44C63.5184 133.44 64.2544 133.621 64.8944 133.984C65.5344 134.347 66.041 134.853 66.4144 135.504C66.7877 136.144 66.9744 136.896 66.9744 137.76C66.9744 138.624 66.7877 139.381 66.4144 140.032C66.041 140.683 65.5344 141.189 64.8944 141.552C64.2544 141.915 63.5184 142.096 62.6864 142.096ZM58.1904 142V130.128H59.7264V135.776L59.5664 137.744L59.6624 139.712V142H58.1904ZM62.5584 140.752C63.1024 140.752 63.5877 140.629 64.0144 140.384C64.4517 140.139 64.793 139.792 65.0384 139.344C65.2944 138.885 65.4224 138.357 65.4224 137.76C65.4224 137.152 65.2944 136.629 65.0384 136.192C64.793 135.744 64.4517 135.397 64.0144 135.152C63.5877 134.907 63.1024 134.784 62.5584 134.784C62.025 134.784 61.5397 134.907 61.1024 135.152C60.6757 135.397 60.3344 135.744 60.0784 136.192C59.833 136.629 59.7104 137.152 59.7104 137.76C59.7104 138.357 59.833 138.885 60.0784 139.344C60.3344 139.792 60.6757 140.139 61.1024 140.384C61.5397 140.629 62.025 140.752 62.5584 140.752ZM72.8726 142.096C71.966 142.096 71.166 141.909 70.4726 141.536C69.79 141.163 69.2566 140.651 68.8726 140C68.4993 139.349 68.3126 138.603 68.3126 137.76C68.3126 136.917 68.494 136.171 68.8566 135.52C69.23 134.869 69.7366 134.363 70.3766 134C71.0273 133.627 71.758 133.44 72.5686 133.44C73.39 133.44 74.1153 133.621 74.7446 133.984C75.374 134.347 75.8646 134.859 76.2166 135.52C76.5793 136.171 76.7606 136.933 76.7606 137.808C76.7606 137.872 76.7553 137.947 76.7446 138.032C76.7446 138.117 76.7393 138.197 76.7286 138.272H69.5126V137.168H75.9286L75.3046 137.552C75.3153 137.008 75.2033 136.523 74.9686 136.096C74.734 135.669 74.4086 135.339 73.9926 135.104C73.5873 134.859 73.1126 134.736 72.5686 134.736C72.0353 134.736 71.5606 134.859 71.1446 135.104C70.7286 135.339 70.4033 135.675 70.1686 136.112C69.934 136.539 69.8166 137.029 69.8166 137.584V137.84C69.8166 138.405 69.9446 138.912 70.2006 139.36C70.4673 139.797 70.8353 140.139 71.3046 140.384C71.774 140.629 72.3126 140.752 72.9206 140.752C73.422 140.752 73.8753 140.667 74.2806 140.496C74.6966 140.325 75.0593 140.069 75.3686 139.728L76.2166 140.72C75.8326 141.168 75.3526 141.509 74.7766 141.744C74.2113 141.979 73.5766 142.096 72.8726 142.096ZM81.8055 142.096C80.9522 142.096 80.2908 141.867 79.8215 141.408C79.3522 140.949 79.1175 140.293 79.1175 139.44V131.664H80.6535V139.376C80.6535 139.835 80.7655 140.187 80.9895 140.432C81.2242 140.677 81.5548 140.8 81.9815 140.8C82.4615 140.8 82.8615 140.667 83.1815 140.4L83.6615 141.504C83.4268 141.707 83.1442 141.856 82.8135 141.952C82.4935 142.048 82.1575 142.096 81.8055 142.096ZM77.6775 134.784V133.52H83.0855V134.784H77.6775ZM88.2274 142.096C87.374 142.096 86.7127 141.867 86.2434 141.408C85.774 140.949 85.5394 140.293 85.5394 139.44V131.664H87.0754V139.376C87.0754 139.835 87.1874 140.187 87.4114 140.432C87.646 140.677 87.9767 140.8 88.4034 140.8C88.8834 140.8 89.2834 140.667 89.6034 140.4L90.0834 141.504C89.8487 141.707 89.566 141.856 89.2354 141.952C88.9154 142.048 88.5794 142.096 88.2274 142.096ZM84.0994 134.784V133.52H89.5074V134.784H84.0994ZM91.9404 142V133.52H93.4764V142H91.9404ZM92.7084 131.888C92.4097 131.888 92.159 131.792 91.9564 131.6C91.7644 131.408 91.6684 131.173 91.6684 130.896C91.6684 130.608 91.7644 130.368 91.9564 130.176C92.159 129.984 92.4097 129.888 92.7084 129.888C93.007 129.888 93.2524 129.984 93.4444 130.176C93.647 130.357 93.7484 130.587 93.7484 130.864C93.7484 131.152 93.6524 131.397 93.4604 131.6C93.2684 131.792 93.0177 131.888 92.7084 131.888ZM100.937 133.44C101.63 133.44 102.238 133.573 102.761 133.84C103.294 134.107 103.71 134.512 104.009 135.056C104.308 135.6 104.457 136.288 104.457 137.12V142H102.921V137.296C102.921 136.475 102.718 135.856 102.313 135.44C101.918 135.024 101.358 134.816 100.633 134.816C100.089 134.816 99.6145 134.923 99.2091 135.136C98.8038 135.349 98.4891 135.664 98.2651 136.08C98.0518 136.496 97.9451 137.013 97.9451 137.632V142H96.4091V133.52H97.8811V135.808L97.6411 135.2C97.9185 134.645 98.3451 134.213 98.9211 133.904C99.4971 133.595 100.169 133.44 100.937 133.44ZM111.012 145.2C110.233 145.2 109.476 145.088 108.74 144.864C108.014 144.651 107.422 144.341 106.964 143.936L107.7 142.752C108.094 143.093 108.58 143.36 109.156 143.552C109.732 143.755 110.334 143.856 110.964 143.856C111.966 143.856 112.702 143.621 113.172 143.152C113.641 142.683 113.876 141.968 113.876 141.008V139.216L114.036 137.536L113.956 135.84V133.52H115.412V140.848C115.412 142.341 115.038 143.44 114.292 144.144C113.545 144.848 112.452 145.2 111.012 145.2ZM110.82 141.648C109.998 141.648 109.262 141.477 108.612 141.136C107.972 140.784 107.46 140.299 107.076 139.68C106.702 139.061 106.516 138.347 106.516 137.536C106.516 136.715 106.702 136 107.076 135.392C107.46 134.773 107.972 134.293 108.612 133.952C109.262 133.611 109.998 133.44 110.82 133.44C111.545 133.44 112.206 133.589 112.804 133.888C113.401 134.176 113.876 134.624 114.228 135.232C114.59 135.84 114.772 136.608 114.772 137.536C114.772 138.453 114.59 139.216 114.228 139.824C113.876 140.432 113.401 140.891 112.804 141.2C112.206 141.499 111.545 141.648 110.82 141.648ZM110.996 140.304C111.561 140.304 112.062 140.187 112.5 139.952C112.937 139.717 113.278 139.392 113.524 138.976C113.78 138.56 113.908 138.08 113.908 137.536C113.908 136.992 113.78 136.512 113.524 136.096C113.278 135.68 112.937 135.36 112.5 135.136C112.062 134.901 111.561 134.784 110.996 134.784C110.43 134.784 109.924 134.901 109.476 135.136C109.038 135.36 108.692 135.68 108.436 136.096C108.19 136.512 108.068 136.992 108.068 137.536C108.068 138.08 108.19 138.56 108.436 138.976C108.692 139.392 109.038 139.717 109.476 139.952C109.924 140.187 110.43 140.304 110.996 140.304ZM117.739 144.368L118.539 141.136L118.747 142.064C118.437 142.064 118.176 141.968 117.963 141.776C117.76 141.584 117.659 141.323 117.659 140.992C117.659 140.672 117.76 140.411 117.963 140.208C118.176 140.005 118.432 139.904 118.731 139.904C119.04 139.904 119.291 140.011 119.483 140.224C119.675 140.427 119.771 140.683 119.771 140.992C119.771 141.099 119.76 141.205 119.739 141.312C119.728 141.408 119.701 141.525 119.659 141.664C119.627 141.792 119.573 141.952 119.499 142.144L118.747 144.368H117.739ZM126.269 142V130.128H127.805V142H126.269ZM134.369 142.096C133.516 142.096 132.759 141.909 132.097 141.536C131.436 141.163 130.913 140.651 130.529 140C130.145 139.339 129.953 138.592 129.953 137.76C129.953 136.917 130.145 136.171 130.529 135.52C130.913 134.869 131.436 134.363 132.097 134C132.759 133.627 133.516 133.44 134.369 133.44C135.212 133.44 135.964 133.627 136.625 134C137.297 134.363 137.82 134.869 138.193 135.52C138.577 136.16 138.769 136.907 138.769 137.76C138.769 138.603 138.577 139.349 138.193 140C137.82 140.651 137.297 141.163 136.625 141.536C135.964 141.909 135.212 142.096 134.369 142.096ZM134.369 140.752C134.913 140.752 135.399 140.629 135.825 140.384C136.263 140.139 136.604 139.792 136.849 139.344C137.095 138.885 137.217 138.357 137.217 137.76C137.217 137.152 137.095 136.629 136.849 136.192C136.604 135.744 136.263 135.397 135.825 135.152C135.399 134.907 134.913 134.784 134.369 134.784C133.825 134.784 133.34 134.907 132.913 135.152C132.487 135.397 132.145 135.744 131.889 136.192C131.633 136.629 131.505 137.152 131.505 137.76C131.505 138.357 131.633 138.885 131.889 139.344C132.145 139.792 132.487 140.139 132.913 140.384C133.34 140.629 133.825 140.752 134.369 140.752ZM143.806 142.096C142.952 142.096 142.291 141.867 141.822 141.408C141.352 140.949 141.118 140.293 141.118 139.44V131.664H142.654V139.376C142.654 139.835 142.766 140.187 142.99 140.432C143.224 140.677 143.555 140.8 143.982 140.8C144.462 140.8 144.862 140.667 145.182 140.4L145.662 141.504C145.427 141.707 145.144 141.856 144.814 141.952C144.494 142.048 144.158 142.096 143.806 142.096ZM139.678 134.784V133.52H145.086V134.784H139.678ZM150.227 142.096C149.374 142.096 148.713 141.867 148.243 141.408C147.774 140.949 147.539 140.293 147.539 139.44V131.664H149.075V139.376C149.075 139.835 149.187 140.187 149.411 140.432C149.646 140.677 149.977 140.8 150.403 140.8C150.883 140.8 151.283 140.667 151.603 140.4L152.083 141.504C151.849 141.707 151.566 141.856 151.235 141.952C150.915 142.048 150.579 142.096 150.227 142.096ZM146.099 134.784V133.52H151.507V134.784H146.099ZM157.435 142.096C156.528 142.096 155.728 141.909 155.035 141.536C154.352 141.163 153.819 140.651 153.435 140C153.062 139.349 152.875 138.603 152.875 137.76C152.875 136.917 153.056 136.171 153.419 135.52C153.792 134.869 154.299 134.363 154.939 134C155.59 133.627 156.32 133.44 157.131 133.44C157.952 133.44 158.678 133.621 159.307 133.984C159.936 134.347 160.427 134.859 160.779 135.52C161.142 136.171 161.323 136.933 161.323 137.808C161.323 137.872 161.318 137.947 161.307 138.032C161.307 138.117 161.302 138.197 161.291 138.272H154.075V137.168H160.491L159.867 137.552C159.878 137.008 159.766 136.523 159.531 136.096C159.296 135.669 158.971 135.339 158.555 135.104C158.15 134.859 157.675 134.736 157.131 134.736C156.598 134.736 156.123 134.859 155.707 135.104C155.291 135.339 154.966 135.675 154.731 136.112C154.496 136.539 154.379 137.029 154.379 137.584V137.84C154.379 138.405 154.507 138.912 154.763 139.36C155.03 139.797 155.398 140.139 155.867 140.384C156.336 140.629 156.875 140.752 157.483 140.752C157.984 140.752 158.438 140.667 158.843 140.496C159.259 140.325 159.622 140.069 159.931 139.728L160.779 140.72C160.395 141.168 159.915 141.509 159.339 141.744C158.774 141.979 158.139 142.096 157.435 142.096ZM163.456 142V133.52H164.928V135.824L164.784 135.248C165.019 134.661 165.413 134.213 165.968 133.904C166.523 133.595 167.205 133.44 168.016 133.44V134.928C167.952 134.917 167.888 134.912 167.824 134.912C167.771 134.912 167.717 134.912 167.664 134.912C166.843 134.912 166.192 135.157 165.712 135.648C165.232 136.139 164.992 136.848 164.992 137.776V142H163.456ZM170.621 145.2C170.216 145.2 169.821 145.131 169.437 144.992C169.053 144.864 168.722 144.672 168.445 144.416L169.101 143.264C169.314 143.467 169.549 143.621 169.805 143.728C170.061 143.835 170.333 143.888 170.621 143.888C170.994 143.888 171.304 143.792 171.549 143.6C171.794 143.408 172.024 143.067 172.237 142.576L172.765 141.408L172.925 141.216L176.253 133.52H177.757L173.645 142.848C173.4 143.445 173.122 143.915 172.813 144.256C172.514 144.597 172.184 144.837 171.821 144.976C171.458 145.125 171.058 145.2 170.621 145.2ZM172.637 142.272L168.765 133.52H170.365L173.661 141.072L172.637 142.272ZM188.751 142V140.208L188.671 139.872V136.816C188.671 136.165 188.479 135.664 188.095 135.312C187.722 134.949 187.157 134.768 186.399 134.768C185.898 134.768 185.407 134.853 184.927 135.024C184.447 135.184 184.042 135.403 183.711 135.68L183.071 134.528C183.509 134.176 184.031 133.909 184.639 133.728C185.258 133.536 185.903 133.44 186.575 133.44C187.738 133.44 188.634 133.723 189.263 134.288C189.893 134.853 190.207 135.717 190.207 136.88V142H188.751ZM185.967 142.096C185.338 142.096 184.783 141.989 184.303 141.776C183.834 141.563 183.471 141.269 183.215 140.896C182.959 140.512 182.831 140.08 182.831 139.6C182.831 139.141 182.938 138.725 183.151 138.352C183.375 137.979 183.733 137.68 184.223 137.456C184.725 137.232 185.397 137.12 186.239 137.12H188.927V138.224H186.303C185.535 138.224 185.018 138.352 184.751 138.608C184.485 138.864 184.351 139.173 184.351 139.536C184.351 139.952 184.517 140.288 184.847 140.544C185.178 140.789 185.637 140.912 186.223 140.912C186.799 140.912 187.301 140.784 187.727 140.528C188.165 140.272 188.479 139.899 188.671 139.408L188.975 140.464C188.773 140.965 188.415 141.365 187.903 141.664C187.391 141.952 186.746 142.096 185.967 142.096ZM197.578 133.44C198.271 133.44 198.879 133.573 199.402 133.84C199.935 134.107 200.351 134.512 200.65 135.056C200.948 135.6 201.098 136.288 201.098 137.12V142H199.562V137.296C199.562 136.475 199.359 135.856 198.954 135.44C198.559 135.024 197.999 134.816 197.274 134.816C196.73 134.816 196.255 134.923 195.85 135.136C195.444 135.349 195.13 135.664 194.906 136.08C194.692 136.496 194.586 137.013 194.586 137.632V142H193.05V133.52H194.522V135.808L194.282 135.2C194.559 134.645 194.986 134.213 195.562 133.904C196.138 133.595 196.81 133.44 197.578 133.44ZM207.444 142.096C206.623 142.096 205.887 141.915 205.236 141.552C204.596 141.189 204.09 140.683 203.716 140.032C203.343 139.381 203.156 138.624 203.156 137.76C203.156 136.896 203.343 136.144 203.716 135.504C204.09 134.853 204.596 134.347 205.236 133.984C205.887 133.621 206.623 133.44 207.444 133.44C208.159 133.44 208.804 133.6 209.38 133.92C209.956 134.24 210.415 134.72 210.756 135.36C211.108 136 211.284 136.8 211.284 137.76C211.284 138.72 211.114 139.52 210.772 140.16C210.442 140.8 209.988 141.285 209.412 141.616C208.836 141.936 208.18 142.096 207.444 142.096ZM207.572 140.752C208.106 140.752 208.586 140.629 209.012 140.384C209.45 140.139 209.791 139.792 210.036 139.344C210.292 138.885 210.42 138.357 210.42 137.76C210.42 137.152 210.292 136.629 210.036 136.192C209.791 135.744 209.45 135.397 209.012 135.152C208.586 134.907 208.106 134.784 207.572 134.784C207.028 134.784 206.543 134.907 206.116 135.152C205.69 135.397 205.348 135.744 205.092 136.192C204.836 136.629 204.708 137.152 204.708 137.76C204.708 138.357 204.836 138.885 205.092 139.344C205.348 139.792 205.69 140.139 206.116 140.384C206.543 140.629 207.028 140.752 207.572 140.752ZM210.468 142V139.712L210.564 137.744L210.404 135.776V130.128H211.94V142H210.468ZM223.64 142.096C222.914 142.096 222.258 141.936 221.672 141.616C221.096 141.285 220.637 140.8 220.296 140.16C219.965 139.52 219.799 138.72 219.799 137.76C219.799 136.8 219.97 136 220.312 135.36C220.664 134.72 221.128 134.24 221.704 133.92C222.29 133.6 222.936 133.44 223.64 133.44C224.472 133.44 225.208 133.621 225.848 133.984C226.488 134.347 226.994 134.853 227.368 135.504C227.741 136.144 227.928 136.896 227.928 137.76C227.928 138.624 227.741 139.381 227.368 140.032C226.994 140.683 226.488 141.189 225.848 141.552C225.208 141.915 224.472 142.096 223.64 142.096ZM219.144 142V130.128H220.68V135.776L220.52 137.744L220.616 139.712V142H219.144ZM223.512 140.752C224.056 140.752 224.541 140.629 224.968 140.384C225.405 140.139 225.746 139.792 225.992 139.344C226.248 138.885 226.376 138.357 226.376 137.76C226.376 137.152 226.248 136.629 225.992 136.192C225.746 135.744 225.405 135.397 224.968 135.152C224.541 134.907 224.056 134.784 223.512 134.784C222.978 134.784 222.493 134.907 222.056 135.152C221.629 135.397 221.288 135.744 221.032 136.192C220.786 136.629 220.664 137.152 220.664 137.76C220.664 138.357 220.786 138.885 221.032 139.344C221.288 139.792 221.629 140.139 222.056 140.384C222.493 140.629 222.978 140.752 223.512 140.752ZM230.05 142V133.52H231.586V142H230.05ZM230.818 131.888C230.519 131.888 230.268 131.792 230.066 131.6C229.874 131.408 229.778 131.173 229.778 130.896C229.778 130.608 229.874 130.368 230.066 130.176C230.268 129.984 230.519 129.888 230.818 129.888C231.116 129.888 231.362 129.984 231.554 130.176C231.756 130.357 231.858 130.587 231.858 130.864C231.858 131.152 231.762 131.397 231.57 131.6C231.378 131.792 231.127 131.888 230.818 131.888ZM239.047 133.44C239.74 133.44 240.348 133.573 240.871 133.84C241.404 134.107 241.82 134.512 242.119 135.056C242.417 135.6 242.567 136.288 242.567 137.12V142H241.031V137.296C241.031 136.475 240.828 135.856 240.423 135.44C240.028 135.024 239.468 134.816 238.743 134.816C238.199 134.816 237.724 134.923 237.319 135.136C236.913 135.349 236.599 135.664 236.375 136.08C236.161 136.496 236.055 137.013 236.055 137.632V142H234.519V133.52H235.991V135.808L235.751 135.2C236.028 134.645 236.455 134.213 237.031 133.904C237.607 133.595 238.279 133.44 239.047 133.44ZM249.121 145.2C248.342 145.2 247.585 145.088 246.849 144.864C246.124 144.651 245.532 144.341 245.073 143.936L245.809 142.752C246.204 143.093 246.689 143.36 247.265 143.552C247.841 143.755 248.444 143.856 249.073 143.856C250.076 143.856 250.812 143.621 251.281 143.152C251.75 142.683 251.985 141.968 251.985 141.008V139.216L252.145 137.536L252.065 135.84V133.52H253.521V140.848C253.521 142.341 253.148 143.44 252.401 144.144C251.654 144.848 250.561 145.2 249.121 145.2ZM248.929 141.648C248.108 141.648 247.372 141.477 246.721 141.136C246.081 140.784 245.569 140.299 245.185 139.68C244.812 139.061 244.625 138.347 244.625 137.536C244.625 136.715 244.812 136 245.185 135.392C245.569 134.773 246.081 134.293 246.721 133.952C247.372 133.611 248.108 133.44 248.929 133.44C249.654 133.44 250.316 133.589 250.913 133.888C251.51 134.176 251.985 134.624 252.337 135.232C252.7 135.84 252.881 136.608 252.881 137.536C252.881 138.453 252.7 139.216 252.337 139.824C251.985 140.432 251.51 140.891 250.913 141.2C250.316 141.499 249.654 141.648 248.929 141.648ZM249.105 140.304C249.67 140.304 250.172 140.187 250.609 139.952C251.046 139.717 251.388 139.392 251.633 138.976C251.889 138.56 252.017 138.08 252.017 137.536C252.017 136.992 251.889 136.512 251.633 136.096C251.388 135.68 251.046 135.36 250.609 135.136C250.172 134.901 249.67 134.784 249.105 134.784C248.54 134.784 248.033 134.901 247.585 135.136C247.148 135.36 246.801 135.68 246.545 136.096C246.3 136.512 246.177 136.992 246.177 137.536C246.177 138.08 246.3 138.56 246.545 138.976C246.801 139.392 247.148 139.717 247.585 139.952C248.033 140.187 248.54 140.304 249.105 140.304ZM260.088 142.096C259.235 142.096 258.477 141.909 257.816 141.536C257.155 141.163 256.632 140.651 256.248 140C255.864 139.339 255.672 138.592 255.672 137.76C255.672 136.917 255.864 136.171 256.248 135.52C256.632 134.869 257.155 134.363 257.816 134C258.477 133.627 259.235 133.44 260.088 133.44C260.931 133.44 261.683 133.627 262.344 134C263.016 134.363 263.539 134.869 263.912 135.52C264.296 136.16 264.488 136.907 264.488 137.76C264.488 138.603 264.296 139.349 263.912 140C263.539 140.651 263.016 141.163 262.344 141.536C261.683 141.909 260.931 142.096 260.088 142.096ZM260.088 140.752C260.632 140.752 261.117 140.629 261.544 140.384C261.981 140.139 262.323 139.792 262.568 139.344C262.813 138.885 262.936 138.357 262.936 137.76C262.936 137.152 262.813 136.629 262.568 136.192C262.323 135.744 261.981 135.397 261.544 135.152C261.117 134.907 260.632 134.784 260.088 134.784C259.544 134.784 259.059 134.907 258.632 135.152C258.205 135.397 257.864 135.744 257.608 136.192C257.352 136.629 257.224 137.152 257.224 137.76C257.224 138.357 257.352 138.885 257.608 139.344C257.864 139.792 258.205 140.139 258.632 140.384C259.059 140.629 259.544 140.752 260.088 140.752ZM5.952 168.096C5.248 168.096 4.60267 167.936 4.016 167.616C3.44 167.285 2.976 166.8 2.624 166.16C2.28267 165.52 2.112 164.72 2.112 163.76C2.112 162.8 2.27733 162 2.608 161.36C2.94933 160.72 3.408 160.24 3.984 159.92C4.57067 159.6 5.22667 159.44 5.952 159.44C6.784 159.44 7.52 159.621 8.16 159.984C8.8 160.347 9.30667 160.853 9.68 161.504C10.0533 162.144 10.24 162.896 10.24 163.76C10.24 164.624 10.0533 165.381 9.68 166.032C9.30667 166.683 8.8 167.189 8.16 167.552C7.52 167.915 6.784 168.096 5.952 168.096ZM1.456 171.104V159.52H2.928V161.808L2.832 163.776L2.992 165.744V171.104H1.456ZM5.824 166.752C6.368 166.752 6.85333 166.629 7.28 166.384C7.71733 166.139 8.05867 165.792 8.304 165.344C8.56 164.885 8.688 164.357 8.688 163.76C8.688 163.152 8.56 162.629 8.304 162.192C8.05867 161.744 7.71733 161.397 7.28 161.152C6.85333 160.907 6.368 160.784 5.824 160.784C5.29067 160.784 4.80533 160.907 4.368 161.152C3.94133 161.397 3.6 161.744 3.344 162.192C3.09867 162.629 2.976 163.152 2.976 163.76C2.976 164.357 3.09867 164.885 3.344 165.344C3.6 165.792 3.94133 166.139 4.368 166.384C4.80533 166.629 5.29067 166.752 5.824 166.752ZM12.3623 168V156.128H13.8983V168H12.3623ZM22.095 168V166.208L22.015 165.872V162.816C22.015 162.165 21.823 161.664 21.439 161.312C21.0657 160.949 20.5003 160.768 19.743 160.768C19.2417 160.768 18.751 160.853 18.271 161.024C17.791 161.184 17.3857 161.403 17.055 161.68L16.415 160.528C16.8523 160.176 17.375 159.909 17.983 159.728C18.6017 159.536 19.247 159.44 19.919 159.44C21.0817 159.44 21.9777 159.723 22.607 160.288C23.2363 160.853 23.551 161.717 23.551 162.88V168H22.095ZM19.311 168.096C18.6817 168.096 18.127 167.989 17.647 167.776C17.1777 167.563 16.815 167.269 16.559 166.896C16.303 166.512 16.175 166.08 16.175 165.6C16.175 165.141 16.2817 164.725 16.495 164.352C16.719 163.979 17.0763 163.68 17.567 163.456C18.0683 163.232 18.7403 163.12 19.583 163.12H22.271V164.224H19.647C18.879 164.224 18.3617 164.352 18.095 164.608C17.8283 164.864 17.695 165.173 17.695 165.536C17.695 165.952 17.8603 166.288 18.191 166.544C18.5217 166.789 18.9803 166.912 19.567 166.912C20.143 166.912 20.6443 166.784 21.071 166.528C21.5083 166.272 21.823 165.899 22.015 165.408L22.319 166.464C22.1163 166.965 21.759 167.365 21.247 167.664C20.735 167.952 20.0897 168.096 19.311 168.096ZM26.6053 171.2C26.1999 171.2 25.8053 171.131 25.4213 170.992C25.0373 170.864 24.7066 170.672 24.4292 170.416L25.0853 169.264C25.2986 169.467 25.5333 169.621 25.7893 169.728C26.0453 169.835 26.3173 169.888 26.6053 169.888C26.9786 169.888 27.2879 169.792 27.5333 169.6C27.7786 169.408 28.0079 169.067 28.2213 168.576L28.7493 167.408L28.9093 167.216L32.2373 159.52H33.7413L29.6293 168.848C29.3839 169.445 29.1066 169.915 28.7973 170.256C28.4986 170.597 28.1679 170.837 27.8053 170.976C27.4426 171.125 27.0426 171.2 26.6053 171.2ZM28.6213 168.272L24.7492 159.52H26.3493L29.6453 167.072L28.6213 168.272ZM35.1748 168V159.52H36.7108V168H35.1748ZM35.9428 157.888C35.6441 157.888 35.3934 157.792 35.1908 157.6C34.9988 157.408 34.9028 157.173 34.9028 156.896C34.9028 156.608 34.9988 156.368 35.1908 156.176C35.3934 155.984 35.6441 155.888 35.9428 155.888C36.2414 155.888 36.4868 155.984 36.6788 156.176C36.8814 156.357 36.9828 156.587 36.9828 156.864C36.9828 157.152 36.8868 157.397 36.6948 157.6C36.5028 157.792 36.2521 157.888 35.9428 157.888ZM44.1715 159.44C44.8648 159.44 45.4728 159.573 45.9955 159.84C46.5288 160.107 46.9448 160.512 47.2435 161.056C47.5422 161.6 47.6915 162.288 47.6915 163.12V168H46.1555V163.296C46.1555 162.475 45.9528 161.856 45.5475 161.44C45.1528 161.024 44.5928 160.816 43.8675 160.816C43.3235 160.816 42.8488 160.923 42.4435 161.136C42.0382 161.349 41.7235 161.664 41.4995 162.08C41.2862 162.496 41.1795 163.013 41.1795 163.632V168H39.6435V159.52H41.1155V161.808L40.8755 161.2C41.1528 160.645 41.5795 160.213 42.1555 159.904C42.7315 159.595 43.4035 159.44 44.1715 159.44ZM54.2461 171.2C53.4675 171.2 52.7101 171.088 51.9741 170.864C51.2488 170.651 50.6568 170.341 50.1981 169.936L50.9341 168.752C51.3288 169.093 51.8141 169.36 52.3901 169.552C52.9661 169.755 53.5688 169.856 54.1981 169.856C55.2008 169.856 55.9368 169.621 56.4061 169.152C56.8755 168.683 57.1101 167.968 57.1101 167.008V165.216L57.2701 163.536L57.1901 161.84V159.52H58.6461V166.848C58.6461 168.341 58.2728 169.44 57.5261 170.144C56.7795 170.848 55.6861 171.2 54.2461 171.2ZM54.0541 167.648C53.2328 167.648 52.4968 167.477 51.8461 167.136C51.2061 166.784 50.6941 166.299 50.3101 165.68C49.9368 165.061 49.7501 164.347 49.7501 163.536C49.7501 162.715 49.9368 162 50.3101 161.392C50.6941 160.773 51.2061 160.293 51.8461 159.952C52.4968 159.611 53.2328 159.44 54.0541 159.44C54.7795 159.44 55.4408 159.589 56.0381 159.888C56.6355 160.176 57.1101 160.624 57.4621 161.232C57.8248 161.84 58.0061 162.608 58.0061 163.536C58.0061 164.453 57.8248 165.216 57.4621 165.824C57.1101 166.432 56.6355 166.891 56.0381 167.2C55.4408 167.499 54.7795 167.648 54.0541 167.648ZM54.2301 166.304C54.7955 166.304 55.2968 166.187 55.7341 165.952C56.1715 165.717 56.5128 165.392 56.7581 164.976C57.0141 164.56 57.1421 164.08 57.1421 163.536C57.1421 162.992 57.0141 162.512 56.7581 162.096C56.5128 161.68 56.1715 161.36 55.7341 161.136C55.2968 160.901 54.7955 160.784 54.2301 160.784C53.6648 160.784 53.1581 160.901 52.7101 161.136C52.2728 161.36 51.9261 161.68 51.6701 162.096C51.4248 162.512 51.3021 162.992 51.3021 163.536C51.3021 164.08 51.4248 164.56 51.6701 164.976C51.9261 165.392 52.2728 165.717 52.7101 165.952C53.1581 166.187 53.6648 166.304 54.2301 166.304ZM66.1019 168V158.768C66.1019 157.936 66.3419 157.275 66.8219 156.784C67.3125 156.283 68.0059 156.032 68.9019 156.032C69.2325 156.032 69.5472 156.075 69.8459 156.16C70.1552 156.235 70.4165 156.357 70.6299 156.528L70.1659 157.696C70.0059 157.568 69.8245 157.472 69.6219 157.408C69.4192 157.333 69.2059 157.296 68.9819 157.296C68.5339 157.296 68.1925 157.424 67.9579 157.68C67.7232 157.925 67.6059 158.293 67.6059 158.784V159.92L67.6379 160.624V168H66.1019ZM64.6619 160.784V159.52H70.0699V160.784H64.6619ZM75.0255 168.096C74.1722 168.096 73.4148 167.909 72.7535 167.536C72.0922 167.163 71.5695 166.651 71.1855 166C70.8015 165.339 70.6095 164.592 70.6095 163.76C70.6095 162.917 70.8015 162.171 71.1855 161.52C71.5695 160.869 72.0922 160.363 72.7535 160C73.4148 159.627 74.1722 159.44 75.0255 159.44C75.8682 159.44 76.6202 159.627 77.2815 160C77.9535 160.363 78.4762 160.869 78.8495 161.52C79.2335 162.16 79.4255 162.907 79.4255 163.76C79.4255 164.603 79.2335 165.349 78.8495 166C78.4762 166.651 77.9535 167.163 77.2815 167.536C76.6202 167.909 75.8682 168.096 75.0255 168.096ZM75.0255 166.752C75.5695 166.752 76.0548 166.629 76.4815 166.384C76.9188 166.139 77.2602 165.792 77.5055 165.344C77.7508 164.885 77.8735 164.357 77.8735 163.76C77.8735 163.152 77.7508 162.629 77.5055 162.192C77.2602 161.744 76.9188 161.397 76.4815 161.152C76.0548 160.907 75.5695 160.784 75.0255 160.784C74.4815 160.784 73.9962 160.907 73.5695 161.152C73.1428 161.397 72.8015 161.744 72.5455 162.192C72.2895 162.629 72.1615 163.152 72.1615 163.76C72.1615 164.357 72.2895 164.885 72.5455 165.344C72.8015 165.792 73.1428 166.139 73.5695 166.384C73.9962 166.629 74.4815 166.752 75.0255 166.752ZM81.5498 168V159.52H83.0218V161.824L82.8778 161.248C83.1124 160.661 83.5071 160.213 84.0618 159.904C84.6164 159.595 85.2991 159.44 86.1098 159.44V160.928C86.0458 160.917 85.9818 160.912 85.9178 160.912C85.8644 160.912 85.8111 160.912 85.7578 160.912C84.9364 160.912 84.2858 161.157 83.8058 161.648C83.3258 162.139 83.0858 162.848 83.0858 163.776V168H81.5498ZM95.3211 168.096C94.4678 168.096 93.8065 167.867 93.3371 167.408C92.8678 166.949 92.6331 166.293 92.6331 165.44V157.664H94.1691V165.376C94.1691 165.835 94.2811 166.187 94.5051 166.432C94.7398 166.677 95.0705 166.8 95.4971 166.8C95.9771 166.8 96.3771 166.667 96.6971 166.4L97.1771 167.504C96.9425 167.707 96.6598 167.856 96.3291 167.952C96.0091 168.048 95.6731 168.096 95.3211 168.096ZM91.1931 160.784V159.52H96.6011V160.784H91.1931ZM103.562 159.44C104.255 159.44 104.863 159.573 105.386 159.84C105.919 160.107 106.335 160.512 106.634 161.056C106.933 161.6 107.082 162.288 107.082 163.12V168H105.546V163.296C105.546 162.475 105.343 161.856 104.938 161.44C104.543 161.024 103.983 160.816 103.258 160.816C102.714 160.816 102.239 160.923 101.834 161.136C101.429 161.349 101.114 161.664 100.89 162.08C100.677 162.496 100.57 163.013 100.57 163.632V168H99.0341V156.128H100.57V161.808L100.266 161.2C100.543 160.645 100.97 160.213 101.546 159.904C102.122 159.595 102.794 159.44 103.562 159.44ZM113.701 168.096C112.794 168.096 111.994 167.909 111.301 167.536C110.618 167.163 110.085 166.651 109.701 166C109.327 165.349 109.141 164.603 109.141 163.76C109.141 162.917 109.322 162.171 109.685 161.52C110.058 160.869 110.565 160.363 111.205 160C111.855 159.627 112.586 159.44 113.397 159.44C114.218 159.44 114.943 159.621 115.573 159.984C116.202 160.347 116.693 160.859 117.045 161.52C117.407 162.171 117.589 162.933 117.589 163.808C117.589 163.872 117.583 163.947 117.573 164.032C117.573 164.117 117.567 164.197 117.557 164.272H110.341V163.168H116.757L116.133 163.552C116.143 163.008 116.031 162.523 115.797 162.096C115.562 161.669 115.237 161.339 114.821 161.104C114.415 160.859 113.941 160.736 113.397 160.736C112.863 160.736 112.389 160.859 111.973 161.104C111.557 161.339 111.231 161.675 110.997 162.112C110.762 162.539 110.645 163.029 110.645 163.584V163.84C110.645 164.405 110.773 164.912 111.029 165.36C111.295 165.797 111.663 166.139 112.133 166.384C112.602 166.629 113.141 166.752 113.749 166.752C114.25 166.752 114.703 166.667 115.109 166.496C115.525 166.325 115.887 166.069 116.197 165.728L117.045 166.72C116.661 167.168 116.181 167.509 115.605 167.744C115.039 167.979 114.405 168.096 113.701 168.096ZM124.243 168V158.768C124.243 157.936 124.483 157.275 124.963 156.784C125.453 156.283 126.147 156.032 127.043 156.032C127.373 156.032 127.688 156.075 127.987 156.16C128.296 156.235 128.557 156.357 128.771 156.528L128.307 157.696C128.147 157.568 127.965 157.472 127.763 157.408C127.56 157.333 127.347 157.296 127.123 157.296C126.675 157.296 126.333 157.424 126.099 157.68C125.864 157.925 125.747 158.293 125.747 158.784V159.92L125.779 160.624V168H124.243ZM122.803 160.784V159.52H128.211V160.784H122.803ZM133.227 168.096C132.502 168.096 131.862 167.963 131.307 167.696C130.763 167.429 130.336 167.024 130.027 166.48C129.728 165.925 129.579 165.232 129.579 164.4V159.52H131.115V164.224C131.115 165.056 131.312 165.68 131.707 166.096C132.112 166.512 132.678 166.72 133.403 166.72C133.936 166.72 134.4 166.613 134.795 166.4C135.19 166.176 135.494 165.856 135.707 165.44C135.92 165.013 136.027 164.501 136.027 163.904V159.52H137.563V168H136.107V165.712L136.347 166.32C136.07 166.885 135.654 167.323 135.099 167.632C134.544 167.941 133.92 168.096 133.227 168.096ZM145.015 159.44C145.709 159.44 146.317 159.573 146.839 159.84C147.373 160.107 147.789 160.512 148.087 161.056C148.386 161.6 148.535 162.288 148.535 163.12V168H146.999V163.296C146.999 162.475 146.797 161.856 146.391 161.44C145.997 161.024 145.437 160.816 144.711 160.816C144.167 160.816 143.693 160.923 143.287 161.136C142.882 161.349 142.567 161.664 142.343 162.08C142.13 162.496 142.023 163.013 142.023 163.632V168H140.487V159.52H141.959V161.808L141.719 161.2C141.997 160.645 142.423 160.213 142.999 159.904C143.575 159.595 144.247 159.44 145.015 159.44Z" fill="#544837"/>
<path d="M2.068 101V85.6H8.8C10.472 85.6 11.9387 85.9227 13.2 86.568C14.4613 87.2133 15.444 88.108 16.148 89.252C16.852 90.396 17.204 91.7453 17.204 93.3C17.204 94.84 16.852 96.1893 16.148 97.348C15.444 98.492 14.4613 99.3867 13.2 100.032C11.9387 100.677 10.472 101 8.8 101H2.068ZM4.928 98.58H8.668C9.82667 98.58 10.824 98.36 11.66 97.92C12.5107 97.48 13.1633 96.864 13.618 96.072C14.0873 95.28 14.322 94.356 14.322 93.3C14.322 92.2293 14.0873 91.3053 13.618 90.528C13.1633 89.736 12.5107 89.12 11.66 88.68C10.824 88.24 9.82667 88.02 8.668 88.02H4.928V98.58ZM25.5018 101.154C24.1964 101.154 23.0524 100.897 22.0698 100.384C21.1018 99.856 20.3464 99.1373 19.8038 98.228C19.2758 97.3187 19.0118 96.2847 19.0118 95.126C19.0118 93.9527 19.2684 92.9187 19.7818 92.024C20.3098 91.1147 21.0284 90.4033 21.9378 89.89C22.8618 89.3767 23.9104 89.12 25.0838 89.12C26.2278 89.12 27.2471 89.3693 28.1418 89.868C29.0364 90.3667 29.7404 91.0707 30.2538 91.98C30.7671 92.8893 31.0238 93.96 31.0238 95.192C31.0238 95.3093 31.0164 95.4413 31.0018 95.588C31.0018 95.7347 30.9944 95.874 30.9798 96.006H21.1898V94.18H29.5278L28.4498 94.752C28.4644 94.0773 28.3251 93.4833 28.0318 92.97C27.7384 92.4567 27.3351 92.0533 26.8218 91.76C26.3231 91.4667 25.7438 91.32 25.0838 91.32C24.4091 91.32 23.8151 91.4667 23.3018 91.76C22.8031 92.0533 22.4071 92.464 22.1138 92.992C21.8351 93.5053 21.6958 94.114 21.6958 94.818V95.258C21.6958 95.962 21.8571 96.5853 22.1798 97.128C22.5024 97.6707 22.9571 98.0887 23.5438 98.382C24.1304 98.6753 24.8051 98.822 25.5678 98.822C26.2278 98.822 26.8218 98.7193 27.3498 98.514C27.8778 98.3087 28.3471 97.986 28.7578 97.546L30.2318 99.24C29.7038 99.856 29.0364 100.333 28.2298 100.67C27.4378 100.993 26.5284 101.154 25.5018 101.154ZM37.2953 101.154C36.3127 101.154 35.3667 101.029 34.4573 100.78C33.5627 100.516 32.8513 100.201 32.3233 99.834L33.3793 97.744C33.9073 98.0813 34.538 98.36 35.2713 98.58C36.0047 98.8 36.738 98.91 37.4713 98.91C38.3367 98.91 38.96 98.7927 39.3413 98.558C39.7373 98.3233 39.9353 98.008 39.9353 97.612C39.9353 97.2893 39.8033 97.0473 39.5393 96.886C39.2753 96.71 38.9307 96.578 38.5053 96.49C38.08 96.402 37.6033 96.3213 37.0753 96.248C36.562 96.1747 36.0413 96.0793 35.5133 95.962C35 95.83 34.5307 95.6467 34.1053 95.412C33.68 95.1627 33.3353 94.8327 33.0713 94.422C32.8073 94.0113 32.6753 93.4687 32.6753 92.794C32.6753 92.046 32.888 91.4007 33.3133 90.858C33.7387 90.3007 34.3327 89.8753 35.0953 89.582C35.8727 89.274 36.7893 89.12 37.8453 89.12C38.6373 89.12 39.4367 89.208 40.2433 89.384C41.05 89.56 41.7173 89.8093 42.2453 90.132L41.1893 92.222C40.632 91.8847 40.0673 91.6573 39.4953 91.54C38.938 91.408 38.3807 91.342 37.8233 91.342C36.9873 91.342 36.364 91.4667 35.9533 91.716C35.5573 91.9653 35.3593 92.2807 35.3593 92.662C35.3593 93.014 35.4913 93.278 35.7553 93.454C36.0193 93.63 36.364 93.7693 36.7893 93.872C37.2147 93.9747 37.684 94.0627 38.1973 94.136C38.7253 94.1947 39.246 94.29 39.7593 94.422C40.2727 94.554 40.742 94.7373 41.1673 94.972C41.6073 95.192 41.9593 95.5073 42.2233 95.918C42.4873 96.3287 42.6193 96.864 42.6193 97.524C42.6193 98.2573 42.3993 98.8953 41.9593 99.438C41.534 99.9807 40.9253 100.406 40.1333 100.714C39.3413 101.007 38.3953 101.154 37.2953 101.154ZM44.9876 101V89.252H47.7376V101H44.9876ZM46.3736 87.316C45.8603 87.316 45.4349 87.1547 45.0976 86.832C44.7749 86.5093 44.6136 86.1207 44.6136 85.666C44.6136 85.1967 44.7749 84.808 45.0976 84.5C45.4349 84.1773 45.8603 84.016 46.3736 84.016C46.8869 84.016 47.3049 84.17 47.6276 84.478C47.9649 84.7713 48.1336 85.1453 48.1336 85.6C48.1336 86.084 47.9723 86.4947 47.6496 86.832C47.3269 87.1547 46.9016 87.316 46.3736 87.316ZM56.671 105.422C55.5856 105.422 54.5223 105.275 53.481 104.982C52.4543 104.703 51.611 104.293 50.951 103.75L52.183 101.682C52.6963 102.107 53.3416 102.445 54.119 102.694C54.911 102.958 55.7103 103.09 56.517 103.09C57.8076 103.09 58.7536 102.789 59.355 102.188C59.9563 101.601 60.257 100.714 60.257 99.526V97.436L60.477 94.774L60.389 92.112V89.252H63.007V99.218C63.007 101.345 62.4643 102.907 61.379 103.904C60.2936 104.916 58.7243 105.422 56.671 105.422ZM56.319 100.472C55.2043 100.472 54.1923 100.237 53.283 99.768C52.3883 99.284 51.677 98.6167 51.149 97.766C50.6356 96.9153 50.379 95.918 50.379 94.774C50.379 93.6447 50.6356 92.6547 51.149 91.804C51.677 90.9533 52.3883 90.2933 53.283 89.824C54.1923 89.3547 55.2043 89.12 56.319 89.12C57.3163 89.12 58.211 89.318 59.003 89.714C59.795 90.11 60.4256 90.726 60.895 91.562C61.379 92.398 61.621 93.4687 61.621 94.774C61.621 96.0793 61.379 97.1573 60.895 98.008C60.4256 98.844 59.795 99.4673 59.003 99.878C58.211 100.274 57.3163 100.472 56.319 100.472ZM56.737 98.14C57.4263 98.14 58.0423 98.0007 58.585 97.722C59.1276 97.4287 59.5456 97.0327 59.839 96.534C60.147 96.0207 60.301 95.434 60.301 94.774C60.301 94.114 60.147 93.5347 59.839 93.036C59.5456 92.5227 59.1276 92.134 58.585 91.87C58.0423 91.5913 57.4263 91.452 56.737 91.452C56.0476 91.452 55.4243 91.5913 54.867 91.87C54.3243 92.134 53.899 92.5227 53.591 93.036C53.2976 93.5347 53.151 94.114 53.151 94.774C53.151 95.434 53.2976 96.0207 53.591 96.534C53.899 97.0327 54.3243 97.4287 54.867 97.722C55.4243 98.0007 56.0476 98.14 56.737 98.14ZM73.2884 89.12C74.227 89.12 75.063 89.3033 75.7964 89.67C76.5444 90.0367 77.131 90.6013 77.5564 91.364C77.9817 92.112 78.1944 93.08 78.1944 94.268V101H75.4444V94.62C75.4444 93.5787 75.195 92.8013 74.6964 92.288C74.2124 91.7747 73.5304 91.518 72.6504 91.518C72.005 91.518 71.433 91.65 70.9344 91.914C70.4357 92.178 70.047 92.574 69.7684 93.102C69.5044 93.6153 69.3724 94.268 69.3724 95.06V101H66.6224V89.252H69.2404V92.42L68.7784 91.452C69.189 90.704 69.783 90.132 70.5604 89.736C71.3524 89.3253 72.2617 89.12 73.2884 89.12ZM91.393 101.154C90.4103 101.154 89.4643 101.029 88.555 100.78C87.6603 100.516 86.949 100.201 86.421 99.834L87.477 97.744C88.005 98.0813 88.6357 98.36 89.369 98.58C90.1023 98.8 90.8357 98.91 91.569 98.91C92.4343 98.91 93.0577 98.7927 93.439 98.558C93.835 98.3233 94.033 98.008 94.033 97.612C94.033 97.2893 93.901 97.0473 93.637 96.886C93.373 96.71 93.0283 96.578 92.603 96.49C92.1777 96.402 91.701 96.3213 91.173 96.248C90.6597 96.1747 90.139 96.0793 89.611 95.962C89.0977 95.83 88.6283 95.6467 88.203 95.412C87.7777 95.1627 87.433 94.8327 87.169 94.422C86.905 94.0113 86.773 93.4687 86.773 92.794C86.773 92.046 86.9857 91.4007 87.411 90.858C87.8363 90.3007 88.4303 89.8753 89.193 89.582C89.9703 89.274 90.887 89.12 91.943 89.12C92.735 89.12 93.5343 89.208 94.341 89.384C95.1477 89.56 95.815 89.8093 96.343 90.132L95.287 92.222C94.7297 91.8847 94.165 91.6573 93.593 91.54C93.0357 91.408 92.4783 91.342 91.921 91.342C91.085 91.342 90.4617 91.4667 90.051 91.716C89.655 91.9653 89.457 92.2807 89.457 92.662C89.457 93.014 89.589 93.278 89.853 93.454C90.117 93.63 90.4617 93.7693 90.887 93.872C91.3123 93.9747 91.7817 94.0627 92.295 94.136C92.823 94.1947 93.3437 94.29 93.857 94.422C94.3703 94.554 94.8397 94.7373 95.265 94.972C95.705 95.192 96.057 95.5073 96.321 95.918C96.585 96.3287 96.717 96.864 96.717 97.524C96.717 98.2573 96.497 98.8953 96.057 99.438C95.6317 99.9807 95.023 100.406 94.231 100.714C93.439 101.007 92.493 101.154 91.393 101.154ZM104.057 101.154C103.06 101.154 102.18 100.971 101.417 100.604C100.655 100.223 100.061 99.6507 99.6353 98.888C99.2099 98.1107 98.9973 97.1353 98.9973 95.962V89.252H101.747V95.588C101.747 96.644 101.982 97.436 102.451 97.964C102.935 98.4773 103.617 98.734 104.497 98.734C105.143 98.734 105.7 98.602 106.169 98.338C106.653 98.074 107.027 97.678 107.291 97.15C107.57 96.622 107.709 95.9693 107.709 95.192V89.252H110.459V101H107.841V97.832L108.303 98.8C107.907 99.5627 107.328 100.149 106.565 100.56C105.803 100.956 104.967 101.154 104.057 101.154ZM114.06 101V89.252H116.678V92.486L116.37 91.54C116.722 90.748 117.272 90.1467 118.02 89.736C118.783 89.3253 119.729 89.12 120.858 89.12V91.738C120.741 91.7087 120.631 91.694 120.528 91.694C120.425 91.6793 120.323 91.672 120.22 91.672C119.179 91.672 118.35 91.98 117.734 92.596C117.118 93.1973 116.81 94.0993 116.81 95.302V101H114.06ZM126.744 101L121.706 89.252H124.566L128.9 99.614H127.492L131.98 89.252H134.62L129.582 101H126.744ZM141.539 101.154C140.234 101.154 139.09 100.897 138.107 100.384C137.139 99.856 136.384 99.1373 135.841 98.228C135.313 97.3187 135.049 96.2847 135.049 95.126C135.049 93.9527 135.306 92.9187 135.819 92.024C136.347 91.1147 137.066 90.4033 137.975 89.89C138.899 89.3767 139.948 89.12 141.121 89.12C142.265 89.12 143.284 89.3693 144.179 89.868C145.074 90.3667 145.778 91.0707 146.291 91.98C146.804 92.8893 147.061 93.96 147.061 95.192C147.061 95.3093 147.054 95.4413 147.039 95.588C147.039 95.7347 147.032 95.874 147.017 96.006H137.227V94.18H145.565L144.487 94.752C144.502 94.0773 144.362 93.4833 144.069 92.97C143.776 92.4567 143.372 92.0533 142.859 91.76C142.36 91.4667 141.781 91.32 141.121 91.32C140.446 91.32 139.852 91.4667 139.339 91.76C138.84 92.0533 138.444 92.464 138.151 92.992C137.872 93.5053 137.733 94.114 137.733 94.818V95.258C137.733 95.962 137.894 96.5853 138.217 97.128C138.54 97.6707 138.994 98.0887 139.581 98.382C140.168 98.6753 140.842 98.822 141.605 98.822C142.265 98.822 142.859 98.7193 143.387 98.514C143.915 98.3087 144.384 97.986 144.795 97.546L146.269 99.24C145.741 99.856 145.074 100.333 144.267 100.67C143.475 100.993 142.566 101.154 141.539 101.154ZM150.456 105.422C149.884 105.422 149.312 105.327 148.74 105.136C148.168 104.945 147.691 104.681 147.31 104.344L148.41 102.32C148.688 102.569 149.004 102.767 149.356 102.914C149.708 103.061 150.067 103.134 150.434 103.134C150.932 103.134 151.336 103.009 151.644 102.76C151.952 102.511 152.238 102.093 152.502 101.506L153.184 99.966L153.404 99.636L157.848 89.252H160.488L154.988 101.946C154.621 102.826 154.21 103.523 153.756 104.036C153.316 104.549 152.817 104.909 152.26 105.114C151.717 105.319 151.116 105.422 150.456 105.422ZM152.876 101.418L147.574 89.252H150.434L154.746 99.394L152.876 101.418ZM165.686 101.154C164.703 101.154 163.757 101.029 162.848 100.78C161.953 100.516 161.242 100.201 160.714 99.834L161.77 97.744C162.298 98.0813 162.929 98.36 163.662 98.58C164.395 98.8 165.129 98.91 165.862 98.91C166.727 98.91 167.351 98.7927 167.732 98.558C168.128 98.3233 168.326 98.008 168.326 97.612C168.326 97.2893 168.194 97.0473 167.93 96.886C167.666 96.71 167.321 96.578 166.896 96.49C166.471 96.402 165.994 96.3213 165.466 96.248C164.953 96.1747 164.432 96.0793 163.904 95.962C163.391 95.83 162.921 95.6467 162.496 95.412C162.071 95.1627 161.726 94.8327 161.462 94.422C161.198 94.0113 161.066 93.4687 161.066 92.794C161.066 92.046 161.279 91.4007 161.704 90.858C162.129 90.3007 162.723 89.8753 163.486 89.582C164.263 89.274 165.18 89.12 166.236 89.12C167.028 89.12 167.827 89.208 168.634 89.384C169.441 89.56 170.108 89.8093 170.636 90.132L169.58 92.222C169.023 91.8847 168.458 91.6573 167.886 91.54C167.329 91.408 166.771 91.342 166.214 91.342C165.378 91.342 164.755 91.4667 164.344 91.716C163.948 91.9653 163.75 92.2807 163.75 92.662C163.75 93.014 163.882 93.278 164.146 93.454C164.41 93.63 164.755 93.7693 165.18 93.872C165.605 93.9747 166.075 94.0627 166.588 94.136C167.116 94.1947 167.637 94.29 168.15 94.422C168.663 94.554 169.133 94.7373 169.558 94.972C169.998 95.192 170.35 95.5073 170.614 95.918C170.878 96.3287 171.01 96.864 171.01 97.524C171.01 98.2573 170.79 98.8953 170.35 99.438C169.925 99.9807 169.316 100.406 168.524 100.714C167.732 101.007 166.786 101.154 165.686 101.154Z" fill="#2F281E"/>
<defs>
<clipPath id="clip0_36113_822">
<rect width="50" height="50" fill="white"/>
</clipPath>
</defs>
</svg>
